<svg xmlns="http://www.w3.org/2000/svg" xmlns:xlink="http://www.w3.org/1999/xlink" viewBox="0 0 169.59 79.76"><defs><style>.cls-1{fill:none;}.cls-2{isolation:isolate;}.cls-3{mix-blend-mode:multiply;}.cls-4{clip-path:url(#clip-path);}.cls-5{fill:#73a4c1;}.cls-6{clip-path:url(#clip-path-2);}.cls-7{clip-path:url(#clip-path-3);}.cls-8{fill:#38718e;}.cls-9{clip-path:url(#clip-path-4);}.cls-10{fill:#4f515f;}.cls-11{fill:#acc58f;}.cls-12{clip-path:url(#clip-path-5);}.cls-13{fill:#d6dbbf;}.cls-14{clip-path:url(#clip-path-6);}.cls-15{clip-path:url(#clip-path-7);}.cls-16{fill:url(#linear-gradient);}.cls-17{clip-path:url(#clip-path-8);}.cls-18{fill:#e3d8cb;}.cls-19{clip-path:url(#clip-path-9);}.cls-20{fill:#60713a;}</style><clipPath id="clip-path"><rect class="cls-1" x="73.96" y="59.64" width="72.47" height="13"/></clipPath><clipPath id="clip-path-2"><rect class="cls-1" x="40.14" y="59.64" width="65.03" height="20.57"/></clipPath><clipPath id="clip-path-3"><rect class="cls-1" x="5.76" y="59.64" width="81.15" height="13.65"/></clipPath><clipPath id="clip-path-4"><rect class="cls-1" x="29.71" y="59.64" width="51.45" height="5.34"/></clipPath><clipPath id="clip-path-5"><rect class="cls-1" x="79.07" y="40.36" width="75.99" height="20.19"/></clipPath><clipPath id="clip-path-6"><rect class="cls-1" x="68.63" y="50.65" width="71.6" height="9.9"/></clipPath><clipPath id="clip-path-7"><path class="cls-1" d="M69.09,60.1c8.71,0,16.87-9,34.49-9,16.08,0,25.07,6.62,36.2,9Z"/></clipPath><linearGradient id="linear-gradient" x1="-971.98" y1="922.18" x2="-971.53" y2="922.18" gradientTransform="translate(-151402.16 143832) rotate(180) scale(155.91)" gradientUnits="userSpaceOnUse"><stop offset="0" stop-color="#9fbacd"/><stop offset="1" stop-color="#bcc99a"/></linearGradient><clipPath id="clip-path-8"><rect class="cls-1" x="36.52" y="53.65" width="78.1" height="6.9"/></clipPath><clipPath id="clip-path-9"><rect class="cls-1" x="115.84" y="55.52" width="39.84" height="5.03"/></clipPath></defs><title>Ресурс 1</title><g class="cls-2"><g id="Слой_2" data-name="Слой 2"><g id="top_nav" data-name="top nav"><g class="cls-3"><g class="cls-4"><path class="cls-5" d="M146,60.1c-15.52,4.75-35.79,1.69-47.57,9.68-13.13,8.9-24-9.68-24-9.68Z"/></g></g><g class="cls-3"><g class="cls-6"><path class="cls-5" d="M104.72,60.1C89.2,62.44,84.44,75.29,72.66,79.22,59.53,83.6,40.6,60.1,40.6,60.1Z"/></g></g><g class="cls-3"><g class="cls-7"><path class="cls-8" d="M6.22,60.1a78.16,78.16,0,0,1,38,11.48c10,6,42.22-11.48,42.22-11.48Z"/></g></g><g class="cls-3"><g class="cls-9"><path class="cls-10" d="M30.16,60.1c7.31,0,10,6.65,23.72,3.65C63.41,61.68,80.7,60.1,80.7,60.1Z"/></g></g><path class="cls-11" d="M79.8,60.1c15.24-2.44,29.36-9.86,51-14.93,27.95-6.54,25.67,14.93,38.79,14.93Z"/><g class="cls-3"><g class="cls-12"><path class="cls-13" d="M79.53,60.1c31.55-5.26,31.38-19.29,49-19.29,16.08,0,14.93,16.27,26.07,19.29Z"/></g></g><g class="cls-3"><g class="cls-14"><g class="cls-15"><rect class="cls-16" x="69.09" y="51.1" width="70.69" height="8.99"/></g></g></g><g class="cls-3"><g class="cls-17"><path class="cls-18" d="M37,60.1C54.75,58,72.82,50.91,91.46,55.78c8.94,2.34,13.77,3.68,22.71,4.32Z"/></g></g><g class="cls-3"><g class="cls-19"><path class="cls-20" d="M116.3,60.1c5.63,0,19.58-7,28.24-2.74a25.58,25.58,0,0,0,10.69,2.74Z"/></g></g><path class="cls-10" d="M99,34a8.25,8.25,0,0,0-4.12,1.22l-.4-1.29L92,34.1,92.83,37,92,45.21H94.8L95.45,37a6.54,6.54,0,0,1,2.73-.59,4.58,4.58,0,0,1,1.31.14c.06.64.1,1.33.1,2.09v4.17L97,42.85l-.06,2.36h5.49V38.1c0-3.13-.95-4.12-3.4-4.12m-11.6.1-.17,5.09c-.08,1.88-.61,2.64-1.83,3.15-.7-2.87-1.5-5.68-2.39-8.34l-2.77.17c1,3,1.9,5.87,2.73,8.85-.91.21-1.8.36-2.58.46v2.45A27.76,27.76,0,0,0,85.06,45c2.6-.74,4.5-2,4.77-5.47l.45-5.45ZM73.65,34c-1.18,0-2.3.06-3.4.15l.19,2.32c1.21-.11,2.41-.15,3.23-.15s1.4,0,1.91.06a16.48,16.48,0,0,1,.06,1.74v7.11h2.79v-6.9c0-3.78-.81-4.33-4.78-4.33M68.5,42.85v-5c0-3.36-1-3.88-4.5-3.88-1.06,0-2.32,0-3.57.14l.21,2.31c1-.07,2.3-.11,3.3-.11.67,0,1.2,0,1.67.06a6.61,6.61,0,0,1,.1,1.33v5.16h-5.3v2.36H70V43ZM55.83,41h2.8V36.11c0-1.73-.59-2.09-2.49-2.09-.53,0-1.35,0-2,.06l.21,2.28h1.44Z"/><path class="cls-5" d="M48.34,43.09a12.53,12.53,0,0,0,.37-3.23c0-1.22-.08-2.76-.23-4.63l0-.3.44-.54-.47-3.06-2,2.56c.12.86.23,2.15.32,3.85.11,2.09.17,3.74.17,5,0,.92-.05,2-.14,3.37a12.17,12.17,0,0,0,1.52-3m-5-10.6a2.16,2.16,0,0,1-.63-.37,1.29,1.29,0,0,1-.28-.84l-.88,1.55-.18.29a1,1,0,0,0-.16.46c0,.29.2.5.61.63l.66,8.57H38.41v2.43H43l.16-.39.36-1.11,0-.07A8.52,8.52,0,0,0,44,41.32l-.4-6.39.43.18.79-1.91ZM33.39,40a2.13,2.13,0,0,0-.7-.62,5.27,5.27,0,0,1,.84-.1c.49,0,.73.17.73.51a1.88,1.88,0,0,1-.51,1,2.15,2.15,0,0,0-.36-.8m.75,2.81.22-.3a11.59,11.59,0,0,0,1.52-2.62,2.45,2.45,0,0,0,.16-.93c0-1.4-.85-2.09-2.53-2.09a11.91,11.91,0,0,0-3.23.54l-1.1,2.51C30.63,40,31.55,41,32,42.78H26.18v2.43H32l.66-.83.37.83h5.77V42.78ZM32.48,32.19l-1.21,1.16,1.52,1.48L34,33.69ZM22.54,40l-1.31,1.6A11.17,11.17,0,0,1,22.14,43a8.1,8.1,0,0,1,.66,1.58,6.91,6.91,0,0,1-1.65,2.56,3.12,3.12,0,0,1-2.12,1,4,4,0,0,1-1.67-.38,1.36,1.36,0,0,0,.17.25q.31.45.42.57,1.25,1.71,2.16,1.71c.67,0,1.37-.52,2.12-1.56a9.4,9.4,0,0,0,1.53-3.51h2.78V42.78H23.79A7.6,7.6,0,0,0,22.54,40M16.7,49.9l1.2-1.2-1.52-1.47-1.2,1.14ZM13,45.21h4.33c.29-.75.49-1.29.59-1.6a8.16,8.16,0,0,0,.51-2.42,4.75,4.75,0,0,0-1.13-3L16,40a4.81,4.81,0,0,1,.91,2.74H13Zm-7.1-2.43-1,2.38H5a5.08,5.08,0,0,1,3.26.94,7.38,7.38,0,0,1-.81.92A5.27,5.27,0,0,1,5.67,48.1a5.67,5.67,0,0,1-1.89.37Q1,48.47,1,45.06A13.63,13.63,0,0,1,1.43,42,13.76,13.76,0,0,0,0,47a4.11,4.11,0,0,0,1,2.8,3.1,3.1,0,0,0,2.44,1.09,7.92,7.92,0,0,0,5.23-2c.23-.44.53-1,.89-1.8l.66-1.5.16-.4h3V42.78ZM3.29,54.34l1-.91.91.91L6.44,53.2l-1.5-1.5-1,.91L3,51.7,1.76,52.84Z"/><path class="cls-10" d="M102.44,21l-.23-4.16c-.13-2.37-.8-2.71-3-2.71a21.66,21.66,0,0,0-2.26.09l.23,2.28c.66,0,1.23,0,1.78,0h.57l.31,4.6-3.33,1.71v2.73h.29l3.4-2,.07,0,.4,1.88h2.19Zm-7.16-6.8H89.47l-.14-3.4L86.79,11l.13,3.17.25,2.28h5.49l0,0-4,8.81h3l3.8-9.21ZM82.63,21.05h2.81V16.2c0-1.74-.59-2.1-2.49-2.1-.53,0-1.36.05-2,.07l.21,2.28h1.44Zm-3.19-6.88H73.63l-.15-3.4L71,11l.13,3.17.25,2.28h5.49l0,0-4,8.81h3l3.8-9.21Z"/><path class="cls-5" d="M65.11,23.18A12.53,12.53,0,0,0,65.48,20c0-1.22-.07-2.77-.23-4.63l0-.31.44-.54-.46-3.05-2,2.56c.12.86.23,2.14.32,3.85.12,2.08.17,3.74.17,5,0,.91,0,2-.14,3.37a12,12,0,0,0,1.52-3M57.35,14.4l.77-1.9L57,12a3.73,3.73,0,0,1-1-.61,1.25,1.25,0,0,1-.3-.8L54.85,12l-.19.36a1.41,1.41,0,0,0-.21.49c0,.28.23.49.7.62l.21,4.66a7.27,7.27,0,0,1-.88.07,7.08,7.08,0,0,1-1.08-.07h-.29c-.25,0-.54.19-.89.57l-1.29,1.5a2,2,0,0,1,.9-.24,3.15,3.15,0,0,1,1.54.47c.48.26.91.5,1.29.74.7.44,1.18.72,1.45.86a3.22,3.22,0,0,0-1.38.79H48.31V25.3H54a1.48,1.48,0,0,0,.73-.13,7.49,7.49,0,0,0,.7-.62,4.71,4.71,0,0,1,3.33-1.3,6.19,6.19,0,0,1,1.83.27l1.28-2.17A8.91,8.91,0,0,1,59,20.73a17.16,17.16,0,0,1-2.09-.93,2,2,0,0,0,.28-.91c0-.05,0-.36,0-.91l-.23-3.75ZM55.43,27l-1.22,1.16,1.55,1.48,1.17-1.14ZM44,13.54v9.32H41.08L41,25.3h2.41l.52-.75a.91.91,0,0,0,1,.75h3.68V22.86h-2.2c-.41,0-.62-.16-.62-.5V11.42ZM36.68,30l1-.91.94.91,1.2-1.11-1.5-1.5-1,.91-.92-.91L35.16,28.5Zm-.21-8.87L37,22.86H33.22V25.3h3.54l.64-.8.24.8H41.4V22.86H38.77l-.87-3.23Zm-2.9,4.19V22.86h-2.7V11.42L29,13.54l.1,12.53a6.6,6.6,0,0,1-2,1.31,5.2,5.2,0,0,1-2.12.51A2.27,2.27,0,0,1,23.1,27a3.54,3.54,0,0,1-.71-2.31,19.21,19.21,0,0,1,.45-3.55,14.46,14.46,0,0,0-1.45,5.43,3.64,3.64,0,0,0,1,2.58,3.19,3.19,0,0,0,2.42,1.06,8.59,8.59,0,0,0,4.69-1.8,10.21,10.21,0,0,0,.59-1.53l.35-1.23.12-.37Z"/><path class="cls-10" d="M100,6.25h.51c.08-.78,0-.47.11-.94a2.74,2.74,0,0,1,.4-1.44h0l1.83,2.38h.55V6.19l-1-1.26a3.36,3.36,0,0,0,.66-1.66c0-.25.08-.66.09-.79h-.54c0,.11,0,.48,0,.69a2.74,2.74,0,0,1-.44,1.42h0l-1.7-2.15-.52,0v.06l.81,1h0a2.8,2.8,0,0,0-.63,1.64c-.06.35-.1.7-.13,1M98.9,2.48c0,3.18-.75,3.39-1.84,3.39a3.52,3.52,0,0,1-.74-.06L96.23,5c.67-.1,1.22-.37,1.34-1.11.08-.45.15-.91.23-1.36h-.54L97.11,3.6c-.09.65-.37.87-.87.92h0l-.22-2h-.54l.36,3.18a2.71,2.71,0,0,0,.09.52,5.64,5.64,0,0,0,1.21.12c1.36,0,2.35-.39,2.35-3.82Zm-5.55,0c-.33,0-.8,0-1.2.05l0,.43c.39,0,.85,0,1.2,0a5.51,5.51,0,0,1,.81,0,8.05,8.05,0,0,1,.06,1.22c0,1.51-.12,1.68-1.26,1.68h-.81v.43h.9c1.4,0,1.71-.4,1.71-2.09s-.28-1.72-1.44-1.72M90.79,6.25h.53V3c0-.47-.14-.54-.63-.54h-.47l0,.42h.55ZM89.66,2.48H87.49l-.08-1.13-.47.06L87,2.47l.07.42h2.14v0L87.72,6.25h.56l1.44-3.37Zm-6.08,0c-.42,0-.72,0-1.12,0l0,.42c.4,0,.74,0,1.11,0a6.41,6.41,0,0,1,1,0c0,.2,0,.37,0,.61V6.25h.53V3.58c0-1,0-1.13-1.56-1.13m-2.19,0c0,3.18-.76,3.39-1.84,3.39a3.47,3.47,0,0,1-.74-.06L78.71,5c.68-.1,1.22-.37,1.34-1.11.08-.45.15-.91.23-1.36h-.54L79.59,3.6c-.09.65-.37.87-.86.92h-.06l-.22-2h-.53l.35,3.18a3.79,3.79,0,0,0,.09.52,5.64,5.64,0,0,0,1.21.12c1.36,0,2.36-.39,2.36-3.82ZM76.52,6.25h.53V3c0-.47-.15-.54-.63-.54H76l0,.42h.55Zm-1.8-1.61h.54V3c0-.47-.15-.54-.63-.54h-.49l0,.42h.54ZM73,6.25h.52V3c0-.47-.14-.54-.63-.54h-.47l0,.42H73Zm-3-3.8c-.63,0-1.31,0-1.91.07l0,.43.68,0v2.4c0,.36-.1.52-.5.52l-.29,0v.4a1.23,1.23,0,0,0,.35,0c.76,0,1-.38,1-.85V2.89l.73,0a6.77,6.77,0,0,1,1.07.07c0,.27,0,.53,0,.76V6.25h.53V3.62c0-1-.14-1.17-1.69-1.17"/><path class="cls-5" d="M64.24,5.17a1.71,1.71,0,0,1-.33-.29l-.38-.48,0-.05c.33-.63.72-.94,1.17-.94a1.44,1.44,0,0,1,.89.42A2.64,2.64,0,0,0,65.17,3a1,1,0,0,0-.72-.44c-.45,0-.85.37-1.2,1.13a1.9,1.9,0,0,0-.2.83,1.46,1.46,0,0,0,.16.66H61.89V6.26H65.8l.31-1.09ZM60.41,1.71,60,2.23l.57.66L61,2.38Zm-.24,2.67.19.79H59V6.26h1.33l.24-.36.09.36H62V5.17H61l-.33-1.45ZM57,5l-.09,0s0,0-.1-.07l-.42-.41A2.15,2.15,0,0,1,56.76,4c.16-.19.3-.29.41-.29s.3.2.3.6a1.52,1.52,0,0,1,0,.38Zm.32-4.3L57,1.12,56.63.73l-.47.5.57.67.37-.41.36.41.46-.51ZM56.64,6l.35.27h2.1V5.17h-1.4a3.11,3.11,0,0,0,.37-1.38A1.41,1.41,0,0,0,57.87,3a.57.57,0,0,0-.48-.3c-.37,0-.83.52-1.4,1.57a1.79,1.79,0,0,0-.27.75.37.37,0,0,0,0,.12H54.49V6.26h1.88Zm-4.28-.82A.31.31,0,0,1,52,4.82a.85.85,0,0,1,.15-.48q.15-.24.33-.24c.27,0,.44.36.51,1.07Zm.84-1.42c-.2-.4-.42-.61-.64-.61a.56.56,0,0,0-.42.25,3.87,3.87,0,0,0-.51,1,3,3,0,0,0-.2,1,.94.94,0,0,0,.16.55.59.59,0,0,0,.4.28,2.2,2.2,0,0,0,.45,0h.63a2.31,2.31,0,0,1-.53,1,1.09,1.09,0,0,1-.78.36,1.5,1.5,0,0,1-.59-.15c.45.73.8,1.09,1,1.09s.69-.4,1-1.21a5,5,0,0,0,.31-1.06h1.08V5.17H53.58a3.94,3.94,0,0,0-.38-1.42m-3.65,0a1.66,1.66,0,0,1,.66.58,1.9,1.9,0,0,1,.22.89H48.92l-.2,1.09h1.85l.24-.74a3.69,3.69,0,0,0,.16-1,1.84,1.84,0,0,0-1.08-1.7ZM45.27,5.84l.14.42h1.31a6.35,6.35,0,0,0,.42-1.78,2.38,2.38,0,0,0-.43-1.36l-.47.82a2.71,2.71,0,0,1,.31.92,2.23,2.23,0,0,1,0,.26v0h-.83l-.75-2-.44.71L45,5.17H43.73l-.76-2-.44.71L43,5.17H40.56V6.26H43l.26-.42.14.42H45ZM38.91,1V5.17H37.83l0,1.09h.91l.19-.34a.37.37,0,0,0,.39.34h1.39V5.17h-.83a.2.2,0,0,1-.23-.23V.05ZM33.22,5.17l.61-.47.3-.25a4.46,4.46,0,0,1,1-.67l.15,0a.89.89,0,0,1,.66.42,2.23,2.23,0,0,1,.44,1Zm3.71-.47a1.8,1.8,0,0,0-.26-.86A2.29,2.29,0,0,0,36,3.11a.87.87,0,0,0-.46-.19,2.09,2.09,0,0,0-1,.55l-.48.38-.32.25-.49.39a3.1,3.1,0,0,0,.15-1c0-.15,0-.27,0-.37l-.1-1.52.18.08.3-.85L33.39.62A1.68,1.68,0,0,1,33,.35.74.74,0,0,1,32.92,0l-.37.72a.68.68,0,0,0-.1.31c0,.11.07.2.22.26l.24,3.52-.45.36H31.35V6.26h6.59V5.17h-1.1a1.71,1.71,0,0,0,.09-.47m-5.44.47h-.74q-.27,0-.3-.09a1.34,1.34,0,0,1,0-.37V.05l-.7.92V5.85c0,.18.05.3.13.34a.55.55,0,0,0,.23.07h1.41ZM27,2.26l-.39.4-.34-.4-.46.51.57.66.37-.4.35.4.46-.51Zm2,3.28a4.15,4.15,0,0,0,.2-1.09,2.47,2.47,0,0,0-.42-1.33l-.49.82a2.53,2.53,0,0,1,.34,1.23H25.79a1.47,1.47,0,0,1-.73-.12,1.07,1.07,0,0,1-.35-1,3,3,0,0,1,.1-.81A3.51,3.51,0,0,0,24.34,5a1.24,1.24,0,0,0,.44,1.09.56.56,0,0,0,.34.14l3.66,0L29,5.54"/></g></g></g></svg>